<svg width="621" height="157" viewBox="0 0 621 157" fill="none" xmlns="http://www.w3.org/2000/svg">
<g clip-path="url(#clip0_1_2)">
<path d="M25.6 73.2H0V50H25.6V26.2L50.2 12.4V50H104.2V73.2H50.2V155H25.6V73.2Z" fill="#3c64c4"/>
<path d="M92.6 7H117.2V62.8C123.6 54 134.4 48 148.2 48C170.2 48 189.8 60.2 189.8 90.4V155H165.2V95.4C165.2 79.6 155.6 71.6 142.4 71.6C128 71.6 117.2 81.4 117.2 98.2V155H92.6V7Z" fill="#3c64c4"/>
<path d="M209 102.6C209 74 231.6 48 261.2 48C292.6 48 310.2 72.6 310.2 98.6C310.2 105.6 310 109 309.4 112.4H234.8C238.6 125.4 250 134.2 268.2 134.2C281.6 134.2 293 131.2 302 125.4V148.6C294.8 153.4 281.6 157 267.2 157C229.2 157 209 133.2 209 102.6ZM287 92.4C285 78.8 276.6 70.2 261.8 70.2C247.8 70.2 237.8 78.8 234.6 92.4H287Z" fill="#3c64c4"/>
<path d="M375.6 7H400.2V155H375.6V7Z" fill="#3c64c4"/>
<path d="M440.19 0C448.39 0 455.39 6.6 455.39 15.4C455.39 24.2 448.39 31 440.19 31C431.39 31 424.59 24.4 424.59 15.4C424.59 6.4 431.39 0 440.19 0ZM427.79 50H452.39V155H427.79V50Z" fill="#3c64c4"/>
<path d="M594.39 73.2H620.39V50H594.39V26.4L569.79 12.2V50H513.19V41.8C513.19 32 518.39 28 525.99 28C529.59 28 533.59 28.8 536.39 30.2V6.2C531.19 4.8 526.99 4.4 522.79 4.4C501.79 4.4 488.59 18 488.59 41.4V50H471.79V73.2H488.59V155H513.19V73.2H569.79V155H594.39V73.2Z" fill="#3c64c4"/>
</g>
<defs>
<clipPath id="clip0_1_2">
<rect width="620.39" height="157" fill="white"/>
</clipPath>
</defs>
</svg>
